# xmcd
#
# Track frame offsets:
# 150
# 14974
# 29259
# 43765
# 57525
# 77943
# 91262
# 107766
# 119831
# 136829
# 156978
# 172473
# 188217
# 214906
#
# Disc length: 3151 seconds
#
#
# Revision: 0
# Processed by: cddbd v1.5.1PL0 Copyright (c) Steve Scherf et al.
# Submitted via: FreeRIP 2.942 
#
DISCID=d80c4d0e
DTITLE=The Beez - Demo CD
DYEAR=2005
DGENRE=Acoustic
TTITLE0=Don't Bring Me Down
TTITLE1=Last Nite
TTITLE2=Jolene
TTITLE3=Veronica
TTITLE4=In The River
TTITLE5=Dumbala Dumba
TTITLE6=You Shook Me All Night Long
TTITLE7=Paranoid
TTITLE8=Turkish Girl
TTITLE9=Bubamara
TTITLE10=Coconut (Live)
TTITLE11=I Was Made For Loving You (Live)
TTITLE12=Bohemian Rhapsody (Live)
TTITLE13=Hell's - Heaven's Bells (Bonus Track)
EXTD=
EXTT0=
EXTT1=
EXTT2=
EXTT3=
EXTT4=
EXTT5=
EXTT6=
EXTT7=
EXTT8=
EXTT9=
EXTT10=
EXTT11=
EXTT12=
EXTT13=
PLAYORDER=
